<?xml version="1.0" encoding="UTF-8"?>
<svg id="Livello_1" data-name="Livello 1" xmlns="http://www.w3.org/2000/svg" viewBox="0 0 874.04 710.47">
  <defs>
    <style>
      .cls-1 {
        fill: #fff;
      }
    </style>
  </defs>
  <path class="cls-1" d="M514.85,7.04c-.72-.31-12.55-1.79-15.31-2.23-43.3-6.77-87.04-6.02-129.98-.08-48.37,6.68-97.98,25.58-141.52,47.52-83.31,41.97-156.44,120.87-192.64,206.36-9.85,23.27-19.47,52.93-25.26,78.71-.4,1.78.4,4.15-.18,5.84-.49,1.44-2.45,1.36-2.74,1.73-.23.29,1.26,4.56.82,7.32s-2.8,4.2-2.95,6.09C3.06,383.71-.16,410.13,0,436.26c.26,39.75,7.65,92.55,19.3,129.78.46,1.46,2.37,2.25,2.57,3.34.22,1.19-1,2.72-.87,3.74s2.6.89,3.03,2.26c.52,1.65-1.05,3.95-.81,4.27.22.29,1.83.31,2.33,1.1,1.25,1.96,4.62,13.51,6.12,16.93,15.01,34.18,33.2,64.63,57.39,92.6,2.14,2.47,3.69,5.65,6,8.02,6.34-.66,10.59-6.54,15.55-10.56,9.58-7.74,19.82-16.55,29.97-23.98,5.53-4.05,29.56-17.75,31.26-22.74.21-.62,1.3-6.34,1.27-6.68-.08-.83-2.14-.63-2.83-2.26-1.15-2.7-1.54-8-2.42-10.6-.51-1.5-2.36-2.26-2.64-3.42-.39-1.57,1.03-3.22.9-4.67-.03-.32-2.86-1.22-2.99-5.28-.23-7.47-1.37-8.69-2.06-14.86-2.13-19.13,6.4-51.44,15.74-68.31.43-.77-.08-2.51.44-3.08l2.82-.12c.2-1.46-.89-2.98-.7-4.33.58-4.06,8.22-13.87,9.47-18.4.63-2.27,1.92-10.74.77-12.33-.63-.87-2.57-.58-3.25-1.21-1.29-1.19-10.53-22.62-11.21-25.29-4.12-16.14-.05-23.28,1.98-37.88,1.46-10.51-.47-34.46-4.54-43.5-1.05-2.33-3.9-2.37-1.5-7.04l-3.07-.57c1.34-3.98-1.73-6.58-2.47-9.4-4.62-17.52-.91-35.28,4.83-51.23,2.24-6.23,13.5-23.46,18.04-27.46,9.41-8.3,16.01-5.91,22.32-20.19,11.1-25.14,20.48-46.86,35.52-70.48,19.29-30.29,51.56-71.12,82.32-89.66,1.3-.78,2.32-3.03,3.54-3.57s2.85.67,2.95.55c.18-.21-.48-1.88.66-3.08,5.01-5.3,34.37-17.89,42.54-21.04,37.62-14.53,62.17-16.46,102.36-8.94,40.94,7.67,82.8,35.05,109.46,68.53,1.28,1.61,1.17,3.83,2.27,5.24s5.43,3.5,6.83,5.76c1.08,1.76-.09,2.89.15,3.32.9,1.63,7.09,7.26,9.17,11.18,1.54,2.9.39,1.34,3.05,5.02,6.31,8.73,11.28,20.86,15.65,29.16,12.92,24.58,24.43,50.4,34.43,76.78.35.93,2.03,1.58,2.23,2.69.18,1-1.08,2.45-.65,3.19.9,1.56,3.08,2.93,4.59,6.97,1.67,4.45,2.59,8.72,4.21,12.95,10.2,26.64,18.26,55.21,28.14,82.5,1.38,3.81,3.03,8.77,4.52,12.78,1.22,3.29,6.36,7.7,3.4,11.97,5.28-1.06,2.55,3.87,3.2,4.77,11.78,16.39,19.98,39.28,31.17,57.38,19.53,31.6,59.73,79,90.15,99.85,1.45,1,12.47,7.64,13.21,7.85,1.8.51,3.28.26,4.21-1.42l5.29-20.69c18.81-55.19,23.51-116.57,13.83-175.28-1.15-6.99-.89-16.72-2.11-23.89-1.49-8.77-4.67-18.37-6.87-27.13-35.07-140-140.96-252.93-274.29-298.71-13.61-4.67-27.45-10.15-41.35-13.65-9.93-2.5-21.57-3.27-29.67-6.79ZM654.09,366.75c-2.79-5.55.59-9.6,1.01-14.49,1.66-19.5.4-43.65-9.28-60.74-.72-1.28-6.7-10.38-7.2-10.8-1.15-.96-12.19-7.01-13.61-7.47-3.54-1.14-14.69.86-19.2-.51-2.29,3.54-6.62,4.41-9.94,7.05-2.19,1.74-13.75,13.61-14.63,15.15-.35.6.73,2.41.45,3.89-.11.6-4.61,9.88-5.18,10.87-.46.8-2.1.9-2.28,1.22-.44.74,1.16,3.41.91,5.28-.29,2.22-2.88,2.91-2.98,4.96-.07,1.39,1.13,3.24,1.02,5.08-.14,2.43-3.18,11.54,1.2,11.34,4.29-.2,4.68-3.99,7.19-5.86,5.29-3.93,6.99-5.35,11.87-9.63,4.46-3.92,17.3-14.71,23.22-10.42,5.15,3.73.26,5.77-.99,8.16-9.77,18.59-7.28,35.71-4.64,55.47.3,2.22,1.84,3.52,2.01,4.99,1.24,10.59-.53,23.28-6.96,31.95-2.21,2.98-15.86,13.47-6.54,14.55,25.24,2.93,44.47-32.42,50.24-52.85.61-2.15.26-4.52,1.21-6.61l3.1-.59ZM346.81,633.07c-37.63-18.28-81-26.29-121.98-16.08-3.51.87-17.61,7.34-18.52,10.48-.73,2.52-.16,6.89-.21,9.79-.02,1.41-1.11,3.18-1.04,3.91.08.89,2.44.73,2.91,2.2.81,2.51,1.33,6.96,2.16,9.65,2.49,8.08,17.9,21.14,23.02,28.22.87,1.21.86,3.33,1.01,3.49.12.13,1.39-.97,3.51-.1,1.89.78,6.7,6.29,8.83,7.73,11.29,7.65,27.1,13.83,39.19,16.32,18.47,3.8,26.78.79,44-1.92,2.09-.33,4.12.87,5.01.74,1.05-.16.97-2.5,2.1-2.77,1.37-.32,3.2.39,4.6.06.44-.1,4.91-3.41,7.45-4.62,8.36-3.97,25.4-15.54,32.95-22.72,3.07-2.92,6.01-8.14,9.22-11.19-3.48-5.4-8.32-8.18-12.99-11.97-9.03-7.31-21.66-16.58-31.22-21.22Z"/>
  <path class="cls-1" d="M514.85,7.04c8.1,3.52,19.74,4.29,29.67,6.79,13.9,3.5,27.74,8.98,41.35,13.65,133.33,45.78,239.22,158.71,274.29,298.71,2.2,8.76,5.38,18.36,6.87,27.13,1.22,7.17.96,16.9,2.11,23.89,9.67,58.7,4.98,120.09-13.83,175.28l-5.29,20.69c-.93,1.68-2.41,1.93-4.21,1.42-.74-.21-11.76-6.85-13.21-7.85-30.42-20.85-70.62-68.26-90.15-99.85-11.19-18.1-19.38-40.99-31.17-57.38-.64-.9,2.09-5.83-3.2-4.77,2.96-4.27-2.18-8.67-3.4-11.97-1.49-4.01-3.14-8.98-4.52-12.78-9.88-27.29-17.94-55.86-28.14-82.5-1.62-4.23-2.55-8.5-4.21-12.95-1.52-4.04-3.69-5.41-4.59-6.97-.42-.73.83-2.19.65-3.19-.2-1.1-1.88-1.76-2.23-2.69-10-26.38-21.51-52.2-34.43-76.78-4.36-8.3-9.34-20.43-15.65-29.16-2.66-3.68-1.51-2.12-3.05-5.02-2.08-3.92-8.27-9.55-9.17-11.18-.24-.43.93-1.57-.15-3.32-1.4-2.27-5.73-4.37-6.83-5.76s-.99-3.63-2.27-5.24c-26.66-33.49-68.52-60.87-109.46-68.53-40.2-7.53-64.75-5.59-102.36,8.94-8.17,3.15-37.53,15.75-42.54,21.04-1.13,1.2-.48,2.87-.66,3.08-.1.11-1.73-1.09-2.95-.55s-2.24,2.78-3.54,3.57c-30.75,18.54-63.03,59.37-82.32,89.66-15.04,23.61-24.43,45.34-35.52,70.48-6.3,14.28-12.91,11.89-22.32,20.19-4.54,4-15.8,21.23-18.04,27.46-5.74,15.96-9.45,33.71-4.83,51.23.74,2.81,3.82,5.41,2.47,9.4l3.07.57c-2.39,4.68.45,4.71,1.5,7.04,4.07,9.04,6.01,33,4.54,43.5-2.03,14.6-6.1,21.73-1.98,37.88.68,2.68,9.92,24.1,11.21,25.29.68.63,2.62.34,3.25,1.21,1.15,1.59-.14,10.06-.77,12.33-1.25,4.53-8.89,14.34-9.47,18.4-.19,1.35.9,2.87.7,4.33l-2.82.12c-.52.57-.01,2.31-.44,3.08-9.34,16.87-17.87,49.18-15.74,68.31.69,6.17,1.83,7.4,2.06,14.86.12,4.05,2.96,4.96,2.99,5.28.12,1.44-1.29,3.09-.9,4.67.29,1.15,2.13,1.91,2.64,3.42.88,2.6,1.27,7.9,2.42,10.6.69,1.62,2.75,1.43,2.83,2.26.03.34-1.06,6.06-1.27,6.68-1.7,4.98-25.73,18.69-31.26,22.74-10.15,7.43-20.4,16.24-29.97,23.98-4.96,4.01-9.2,9.89-15.55,10.56-2.31-2.38-3.87-5.55-6-8.02-24.19-27.98-42.38-58.42-57.39-92.6-1.5-3.42-4.86-14.97-6.12-16.93-.51-.79-2.11-.81-2.33-1.1-.24-.32,1.33-2.61.81-4.27-.43-1.37-2.9-1.26-3.03-2.26s1.09-2.55.87-3.74c-.2-1.08-2.11-1.87-2.57-3.34C7.66,528.81.26,476.01,0,436.26c-.17-26.13,3.06-52.55,5.09-77.97.15-1.88,2.52-3.42,2.95-6.09s-1.05-7.03-.82-7.32c.29-.37,2.24-.29,2.74-1.73.58-1.69-.22-4.05.18-5.84,5.79-25.78,15.41-55.44,25.26-78.71,36.19-85.48,109.33-164.39,192.64-206.36,43.54-21.94,93.16-40.84,141.52-47.52,42.94-5.93,86.68-6.69,129.98.08,2.76.43,14.59,1.91,15.31,2.23Z"/>
  <path class="cls-1" d="M480.7,294.15c11.36,8.82,16.04,18.69,21.69,31.32,1.47,3.28,6.71,11.9,7.3,15.74.27,1.79-1.15,4.66-.4,7.85,1.35,5.75,2.59,8.14,2.84,15.16.92,25.69-6.18,40.88-18.15,62.72-14.83,12.01-28.78,25.78-47.61,31.61-1.9.59-8.77,1.65-10.1,2.41-.54.31-.62,2.42-1.74,2.67-1,.22-2.74-1.19-4.69-.72-3,.71-9.86,4.88-12.5,5.6s-5.54-.69-7.26,1.75c-.15.68,6.62,9.08,7.63,10.83,16.43,28.67,27.19,65.56,21.31,102.1-.65,4.02-3.29,11.49-4.52,15.58-.78,2.59-1.82,5.01-2.31,6.7s.96,3.96.8,4.18-2.16.49-2.99,1.55c-3.03,3.87-6.21,15.53-9.2,20.78-2.24,3.94-6.39,5.78-6.74,9.77h-1.48c-1.62-3.62-4.49-3.85-7.4-5.66-25.74-15.94-51.26-27.03-80.3-36.65-11.5-3.81-33.08-10.46-45.43-11.59-3.92-.36-6.7,1.07-9.76.86-7.36-.48-11.63-4.13-22.01-2.86-12.72,1.56-27.94,4.81-38.85,9.12-2.54,1-15.27,9.41-16.75,7.77-.03-1.74.27-3.54-.24-5.26-1.3-4.45-3.11-10.44-3.71-15.29-1.39-11.06,2.98-32.49,6.42-43.47,2.09-6.69,6.25-12.01,9.05-19.03.95-2.38-2.42-3.32,2.38-5.5l-.91-3.45,2.91-.05c-.26-3.53,1.36-5.57,2.67-8.87,2.48-6.25,4.95-10.73,6.42-17.42.15-.67,3.63-.79.99-5.66l3.59-.96c-1.49-3.9,1.08-2.75,2.28-4.65,4.66-7.43,9.67-12.41,18.43-15.6,5.81-2.12,10-1.77,15.9-.49,4.69,1.02,8.5,2.93,12.31,5.69,5.15,3.74,2.73,3.97,9.79,5.38,1.1.22,1.99,1.53,3.19,1.58,3,.13,17.37-9.2,21.27-10.79,7.53.74,14.59-3.96,22.63-3.11,5.74.6,21.48,8.46,24.64,13.41,1.38,2.15,7.29,13.21,7.76,15.23.43,1.86.13,14.5-.3,16.43-.46,2.06-4.26,8.9-4.48,11.41-.34,3.81,2.19,3.18-2.58,7.4l1.57,4.06h-3c-.82,3.21,1.93,3.89,4.48,5.03.61.04,4.74-9.7,5.81-10.73,1.67-1.59,5.86-4.45,7.71-6.74,16.99-20.94,15.8-47.58-7.18-65.93-17.7-14.13-43.94-4.04-61.72,4.99-2.48,1.26-5.74,4.51-8.2,5.8-.86.45-8.02,3.58-8.48,3.62-4.19.39-7.05-7.36-9.77-9.7-1.04-.9-4.04-1.17-5.16-3.18l-2.49,1.85c.89-1.2-2.64-5.52-3.2-5.84-2.13-1.21-4.13,3.4-3.98-1.93-.59-.91-13.11-.42-15.11-.01-.76.15-10.92,3.95-11.66,4.34-4.65,2.47-6.2,9.02-14.08,5.43l1.02-2.99c-4.18.81-3.01-2.32-4.59-4.97-.44-.74-2.04-.85-2.3-1.21-.47-.67.96-2.33.77-3.27-.22-1.14-2.37-.96-2.86-2.33-2.37-6.47-3.3-20.51-1.76-27.47.4-1.8,5.77-11.83,7.16-12.83,2.2-1.58,7.8-1.35,9.6.54,1.04,1.09,2.14,10.24,4.55,13.45.67.89,9.26,5.67,10.06,5.8,1.01.17,7.97-.86,9.33-1.28,2.17-.67,3.06-3.15,3.27-3.23.81-.34,2.02.75,2.78.29,1.05-.63,4.14-5.75,7.27-5.29.41.06,6.93,2.86,7.67,3.32,3.09,1.93,7.87,8.28,11.28,9.72,8.16,3.44,20.78,2.56,28.99-.51,9.82-3.68,20.2-10.45,29.65-14.34,2.88-1.18,6.19-2.38,8.62-4.4l.5,3,4.87-.94c.65,1.42,1.98,4.79,3.16,5.49.99.59,2.23-.49,2.78-.29.48.18,5.29,6.06,7.44,6.98,1.47.63,13.81,1.58,15.29,1.35.39-.06,6.4-3.18,6.98-3.56.71-.46,8.11-9.06,8.87-10.13,1.84-2.57,8.07-15.57,9.81-16.25,1.93-.76,4.2-.33,6.02-.92,9.82-3.21,15.6-3.36,26.25-2.72,5.23.31,9.64,3.55,15.51.98.45-1.55-.21-1.94-.75-2.9-6.68-11.7-13.18-19.15-26.26-23.67-5.89-2.04-21.23-3.57-27.44-2.38-2.13.41-3.43,2.49-5.15,2.69-2.3.27-5.68-1.69-8.78-.58-1.43.51-1.28,2.76-2.27,2.92s-2.62-.96-4.41-.66-3.21,1.96-4.7,2.33c-3.79.94-8.66,1.65-12.59,2.43l-.64,2.83c-5.43-2.58-6.11,1.05-8.71,1.82-17.06,5.05-47.72,12.54-66.56,8.96-7.24-1.38-25.77-6.69-31.68-9.31-3.52-1.56-6.09-6.17-11.05-3.45v-3.01c-4.05,1.88-5.25-1.07-7.75-1.76-1.79-.49-3.74.04-5.51-.47-4.02-1.16-2.42-3.67-8.93-1.46-5.91,2-10.59,2.25-16.11,3.89-2.16.64-3.96,4.38-8.72,2.17-5.59-2.6-2.75-6.51-3.65-9.13-.47-1.36-4.55-8.1-5.13-9.93-.25-.8-.26-15.12-.16-16.75.12-1.92,3.14-8.71,4.25-10.76,3.81-7.02,14.56-17.46,20.68-21.21.83-.51,2.14.3,3.04-.05,16.33-6.33,26.04-5.62,42.68.81,25.09,9.71,42.28,10.53,68.66,4.5,45.55-10.42,110.51-38.86,152.27-6.44ZM323.73,495.16c-1.37-.87-8.63-4.29-9.86-4.23-5.53.28-11.61,3.83-14.84,8.28-.78,1.07-2.28,3.88-3.34,5.52-.39.61-4.07,12.95-4.16,13.98-.49,5.69,2.88,13.11-.44,18.04,6.58,1.77,7.09-1.97,10.46-4.03,5.65-3.44,15.93-7.42,19.65-13.45,1.09-1.77-.08-2.77.15-3.33.07-.16,1.52-.27,2.02-1.44,2.11-4.94,5.61-16.02.35-19.34ZM258.77,494.09c-1.53-1.04-16-.59-17.61.2-6.08,3-8.36,14.24-6.93,20.39,4.32-.54,2.24,1.8,3.33,4.08,12.27,25.67,15.26,9.8,21.33-5.71.59-1.5,2.26-2.39,2.95-4.05,1.12-2.73.72-7.1,3.12-9.92l-.31-1.36c-3.6-.24-4.47-2.67-5.87-3.62Z"/>
  <path class="cls-1" d="M346.81,633.07c9.56,4.64,22.19,13.91,31.22,21.22,4.67,3.78,9.5,6.56,12.99,11.97-3.21,3.05-6.15,8.27-9.22,11.19-7.55,7.17-24.59,18.75-32.95,22.72-2.54,1.21-7.01,4.51-7.45,4.62-1.4.33-3.24-.39-4.6-.06-1.14.27-1.06,2.61-2.1,2.77-.88.13-2.92-1.07-5.01-.74-17.22,2.71-25.53,5.73-44,1.92-12.09-2.49-27.9-8.67-39.19-16.32-2.13-1.44-6.93-6.96-8.83-7.73-2.12-.87-3.39.23-3.51.1-.15-.16-.14-2.28-1.01-3.49-5.12-7.08-20.53-20.13-23.02-28.22-.83-2.69-1.35-7.14-2.16-9.65-.47-1.46-2.83-1.3-2.91-2.2-.07-.73,1.02-2.5,1.04-3.91.05-2.91-.53-7.27.21-9.79.91-3.13,15.01-9.6,18.52-10.48,40.98-10.21,84.36-2.2,121.98,16.08Z"/>
  <path class="cls-1" d="M654.09,366.75l-3.1.59c-.95,2.09-.6,4.46-1.21,6.61-5.77,20.44-25,55.79-50.24,52.85-9.32-1.08,4.33-11.57,6.54-14.55,6.43-8.67,8.2-21.36,6.96-31.95-.17-1.47-1.71-2.77-2.01-4.99-2.64-19.76-5.14-36.88,4.64-55.47,1.25-2.38,6.14-4.43.99-8.16-5.92-4.29-18.76,6.5-23.22,10.42-4.88,4.29-6.58,5.7-11.87,9.63-2.52,1.87-2.91,5.67-7.19,5.86-4.38.2-1.34-8.91-1.2-11.34.11-1.85-1.09-3.7-1.02-5.08.1-2.05,2.69-2.75,2.98-4.96.24-1.87-1.36-4.54-.91-5.28.19-.31,1.83-.41,2.28-1.22.57-.99,5.07-10.27,5.18-10.87.28-1.48-.8-3.28-.45-3.89.89-1.54,12.44-13.41,14.63-15.15,3.32-2.64,7.65-3.51,9.94-7.05,4.52,1.37,15.66-.63,19.2.51,1.42.46,12.47,6.51,13.61,7.47.5.42,6.48,9.52,7.2,10.8,9.68,17.09,10.93,41.24,9.28,60.74-.42,4.88-3.8,8.93-1.01,14.49Z"/>
</svg>